<?xml version="1.0" encoding="UTF-8"?>
<svg xmlns="http://www.w3.org/2000/svg" xmlns:xlink="http://www.w3.org/1999/xlink" width="158" height="75" viewBox="0 0 158 75" version="1.1">
<g id="surface1">
<path style=" stroke:none;fill-rule:nonzero;fill:rgb(100%,100%,100%);fill-opacity:1;" d="M 60.914062 10.492188 C 60.914062 14.394531 57.753906 17.558594 53.859375 17.558594 C 49.960938 17.558594 46.800781 14.394531 46.800781 10.492188 C 46.800781 6.585938 49.960938 3.421875 53.859375 3.421875 C 57.753906 3.421875 60.914062 6.585938 60.914062 10.492188 Z M 60.914062 10.492188 "/>
<path style=" stroke:none;fill-rule:nonzero;fill:rgb(100%,100%,100%);fill-opacity:1;" d="M 43.382812 6.398438 C 43.382812 9.933594 40.523438 12.796875 36.996094 12.796875 C 33.464844 12.796875 30.605469 9.933594 30.605469 6.398438 C 30.605469 2.863281 33.464844 0 36.996094 0 C 40.523438 0 43.382812 2.863281 43.382812 6.398438 Z M 43.382812 6.398438 "/>
<path style=" stroke:none;fill-rule:nonzero;fill:rgb(100%,100%,100%);fill-opacity:1;" d="M 26 11.234375 C 26 14.398438 23.441406 16.964844 20.28125 16.964844 C 17.121094 16.964844 14.558594 14.398438 14.558594 11.234375 C 14.558594 8.070312 17.121094 5.507812 20.28125 5.507812 C 23.441406 5.507812 26 8.070312 26 11.234375 Z M 26 11.234375 "/>
<path style=" stroke:none;fill-rule:nonzero;fill:rgb(100%,100%,100%);fill-opacity:1;" d="M 13.371094 23.4375 C 13.371094 26.191406 11.144531 28.421875 8.394531 28.421875 C 5.644531 28.421875 3.417969 26.191406 3.417969 23.4375 C 3.417969 20.683594 5.644531 18.453125 8.394531 18.453125 C 11.144531 18.453125 13.371094 20.683594 13.371094 23.4375 Z M 13.371094 23.4375 "/>
<path style=" stroke:none;fill-rule:nonzero;fill:rgb(100%,100%,100%);fill-opacity:1;" d="M 8.46875 40.105469 C 8.46875 42.445312 6.574219 44.34375 4.234375 44.34375 C 1.894531 44.34375 0 42.445312 0 40.105469 C 0 37.761719 1.894531 35.863281 4.234375 35.863281 C 6.574219 35.863281 8.46875 37.761719 8.46875 40.105469 Z M 8.46875 40.105469 "/>
<path style=" stroke:none;fill-rule:nonzero;fill:rgb(100%,100%,100%);fill-opacity:1;" d="M 12.777344 56.695312 C 12.777344 58.75 11.113281 60.417969 9.0625 60.417969 C 7.011719 60.417969 5.347656 58.75 5.347656 56.695312 C 5.347656 54.640625 7.011719 52.976562 9.0625 52.976562 C 11.113281 52.976562 12.777344 54.640625 12.777344 56.695312 Z M 12.777344 56.695312 "/>
<path style=" stroke:none;fill-rule:nonzero;fill:rgb(100%,100%,100%);fill-opacity:1;" d="M 24.367188 68.601562 C 24.367188 70.328125 22.96875 71.726562 21.246094 71.726562 C 19.523438 71.726562 18.125 70.328125 18.125 68.601562 C 18.125 66.875 19.523438 65.476562 21.246094 65.476562 C 22.96875 65.476562 24.367188 66.875 24.367188 68.601562 Z M 24.367188 68.601562 "/>
<path style=" stroke:none;fill-rule:nonzero;fill:rgb(100%,100%,100%);fill-opacity:1;" d="M 40.410156 72.695312 C 40.410156 73.96875 39.378906 75 38.109375 75 C 36.835938 75 35.804688 73.96875 35.804688 72.695312 C 35.804688 71.417969 36.835938 70.386719 38.109375 70.386719 C 39.378906 70.386719 40.410156 71.417969 40.410156 72.695312 Z M 40.410156 72.695312 "/>
<path style=" stroke:none;fill-rule:nonzero;fill:rgb(100%,100%,100%);fill-opacity:1;" d="M 23.3125 50.441406 C 23.3125 50.039062 23.457031 49.703125 23.742188 49.433594 C 24.027344 49.164062 24.382812 49.03125 24.8125 49.03125 L 26.308594 49.03125 C 27.621094 46.335938 28.550781 43.386719 29.089844 40.183594 C 29.660156 36.953125 29.949219 33.371094 29.949219 29.4375 C 29.949219 28.066406 29.746094 27.054688 29.347656 26.410156 C 28.949219 25.738281 28.148438 25.398438 26.949219 25.398438 L 26.523438 25.398438 L 26.523438 24.1875 L 49.167969 24.1875 L 49.167969 49.03125 L 50.664062 49.03125 C 51.09375 49.03125 51.449219 49.164062 51.734375 49.433594 C 52.019531 49.703125 52.164062 50.039062 52.164062 50.441406 L 52.164062 58.277344 L 50.023438 58.277344 C 49.792969 56.367188 49.453125 54.871094 48.996094 53.796875 C 48.566406 52.71875 48.011719 51.949219 47.324219 51.492188 C 46.640625 51.0625 45.757812 50.847656 44.671875 50.847656 L 30.804688 50.847656 C 29.71875 50.847656 28.835938 51.0625 28.148438 51.492188 C 27.464844 51.949219 26.894531 52.71875 26.4375 53.796875 C 26.007812 54.871094 25.679688 56.367188 25.453125 58.277344 L 23.3125 58.277344 Z M 43.167969 49.03125 L 43.167969 26.007812 L 34.183594 26.007812 C 34.183594 31.554688 33.929688 36.089844 33.414062 39.617188 C 32.902344 43.144531 32.015625 46.28125 30.761719 49.03125 Z M 43.167969 49.03125 "/>
<path style=" stroke:none;fill-rule:nonzero;fill:rgb(100%,100%,100%);fill-opacity:1;" d="M 72.421875 45.941406 C 71.015625 45.941406 69.746094 45.664062 68.609375 45.109375 C 67.476562 44.53125 66.550781 43.421875 65.835938 41.777344 L 65.070312 39.984375 L 56.179688 39.984375 L 53.441406 45.8125 L 51.703125 45.8125 L 61.5625 24.675781 L 63.0625 24.675781 L 70.550781 41.777344 C 71.394531 43.761719 72.066406 44.832031 73.539062 44.980469 L 73.539062 45.78125 C 73.136719 45.886719 73.089844 45.941406 72.421875 45.941406 Z M 56.882812 38.542969 L 64.433594 38.542969 L 60.757812 30.183594 Z M 56.882812 38.542969 "/>
<path style=" stroke:none;fill-rule:nonzero;fill:rgb(100%,100%,100%);fill-opacity:1;" d="M 75.757812 28.839844 C 75.757812 27.75 75.601562 26.949219 75.289062 26.4375 C 74.980469 25.902344 74.355469 25.636719 73.417969 25.636719 L 73.085938 25.636719 L 73.085938 24.675781 L 82.273438 24.675781 C 84.570312 24.675781 86.640625 25.113281 88.488281 25.988281 C 90.359375 26.84375 91.296875 28.550781 91.296875 31.113281 C 91.296875 32.777344 90.804688 34.070312 89.824219 34.988281 C 88.867188 35.90625 87.789062 36.515625 86.585938 36.8125 C 85.382812 37.113281 84.28125 37.261719 83.277344 37.261719 L 80.101562 37.261719 L 80.101562 45.8125 L 75.757812 45.8125 Z M 82.105469 35.980469 C 83.421875 35.980469 84.503906 35.597656 85.347656 34.828125 C 86.195312 34.058594 86.617188 32.765625 86.617188 30.953125 C 86.617188 29.160156 86.195312 27.878906 85.347656 27.109375 C 84.523438 26.339844 83.5 25.957031 82.273438 25.957031 C 81.628906 25.957031 81.128906 26 80.769531 26.085938 L 80.101562 26.179688 L 80.101562 35.980469 Z M 82.105469 35.980469 "/>
<path style=" stroke:none;fill-rule:nonzero;fill:rgb(100%,100%,100%);fill-opacity:1;" d="M 94.394531 28.839844 C 94.394531 27.75 94.238281 26.949219 93.925781 26.4375 C 93.617188 25.902344 92.992188 25.636719 92.054688 25.636719 L 91.722656 25.636719 L 91.722656 24.675781 L 100.746094 24.675781 C 103.550781 24.675781 105.890625 25.050781 107.761719 25.796875 C 109.65625 26.542969 110.601562 28.039062 110.601562 30.28125 C 110.601562 31.261719 110.1875 32.191406 109.363281 33.066406 C 108.5625 33.921875 107.425781 34.527344 105.957031 34.890625 C 109.722656 35.253906 111.605469 36.941406 111.605469 39.953125 C 111.605469 42.171875 110.679688 43.710938 108.832031 44.5625 C 106.980469 45.398438 104.621094 45.8125 101.746094 45.8125 L 94.394531 45.8125 Z M 101.246094 34.25 C 102.695312 34.25 103.828125 33.929688 104.652344 33.289062 C 105.5 32.628906 105.921875 31.570312 105.921875 30.121094 C 105.921875 28.648438 105.421875 27.589844 104.417969 26.949219 C 103.441406 26.289062 102.214844 25.957031 100.746094 25.957031 C 100.144531 25.957031 99.675781 26 99.339844 26.085938 L 98.738281 26.179688 L 98.738281 34.25 Z M 101.246094 44.53125 C 103.09375 44.53125 104.496094 44.148438 105.457031 43.378906 C 106.4375 42.609375 106.925781 41.523438 106.925781 40.113281 C 106.925781 37.167969 105.03125 35.691406 101.246094 35.691406 L 98.738281 35.691406 L 98.738281 44.210938 C 98.984375 44.296875 99.207031 44.351562 99.40625 44.371094 C 99.898438 44.480469 100.453125 44.53125 101.078125 44.53125 Z M 101.246094 44.53125 "/>
<path style=" stroke:none;fill-rule:nonzero;fill:rgb(100%,100%,100%);fill-opacity:1;" d="M 115.25 28.839844 C 115.25 27.75 115.09375 26.949219 114.785156 26.4375 C 114.472656 25.902344 113.847656 25.636719 112.910156 25.636719 L 112.578125 25.636719 L 112.578125 24.675781 L 116.585938 24.675781 C 117.390625 24.675781 118.003906 24.804688 118.425781 25.058594 C 118.847656 25.316406 119.148438 25.742188 119.328125 26.339844 C 119.507812 26.917969 119.59375 27.75 119.59375 28.839844 L 119.59375 41.648438 L 129.285156 24.675781 L 133.292969 24.675781 L 133.292969 45.8125 L 128.949219 45.8125 L 128.949219 28.839844 L 119.261719 45.8125 L 115.25 45.8125 Z M 115.25 28.839844 "/>
<path style=" stroke:none;fill-rule:nonzero;fill:rgb(100%,100%,100%);fill-opacity:1;" d="M 138.617188 28.839844 C 138.617188 27.75 138.460938 26.949219 138.148438 26.4375 C 137.835938 25.902344 137.214844 25.636719 136.277344 25.636719 L 135.945312 25.636719 L 135.945312 24.675781 L 139.953125 24.675781 C 140.753906 24.675781 141.367188 24.804688 141.792969 25.058594 C 142.214844 25.316406 142.515625 25.742188 142.695312 26.339844 C 142.871094 26.917969 142.960938 27.75 142.960938 28.839844 L 142.960938 34.125 L 151.984375 34.125 L 151.984375 24.675781 L 156.328125 24.675781 L 156.328125 41.648438 C 156.328125 42.738281 156.484375 43.550781 156.792969 44.082031 C 157.105469 44.597656 157.730469 44.851562 158.664062 44.851562 L 158 44.851562 L 158 45.8125 L 154.992188 45.8125 C 154.1875 45.8125 153.574219 45.695312 153.152344 45.460938 C 152.730469 45.203125 152.429688 44.789062 152.25 44.210938 C 152.070312 43.613281 151.984375 42.761719 151.984375 41.648438 L 151.984375 35.566406 L 142.960938 35.566406 L 142.960938 45.8125 L 138.617188 45.8125 Z M 138.617188 28.839844 "/>
<path style=" stroke:none;fill-rule:nonzero;fill:rgb(100%,100%,100%);fill-opacity:1;" d="M 61.207031 51.222656 C 61.167969 50.734375 61.140625 49.710938 61.128906 49.464844 L 56.726562 49.464844 L 56.726562 49.804688 C 57.597656 49.902344 57.648438 49.984375 57.648438 50.707031 L 57.648438 54.0625 C 57.648438 54.90625 57.570312 54.988281 56.765625 55.070312 L 56.765625 55.425781 L 59.691406 55.425781 L 59.691406 55.070312 C 58.742188 54.988281 58.679688 54.867188 58.679688 54.0625 L 58.679688 50.351562 C 58.679688 49.96875 58.691406 49.902344 59.058594 49.902344 L 59.667969 49.902344 C 60.035156 49.902344 60.339844 49.957031 60.496094 50.230469 C 60.613281 50.421875 60.71875 50.734375 60.839844 51.265625 Z M 61.207031 51.222656 "/>
<path style=" stroke:none;fill-rule:nonzero;fill:rgb(100%,100%,100%);fill-opacity:1;" d="M 63.667969 50.242188 L 63.667969 49.164062 C 63.046875 49.425781 62.3125 49.65625 61.757812 49.75 L 61.757812 50.078125 C 62.574219 50.1875 62.625 50.214844 62.625 51.101562 L 62.625 57.265625 C 62.625 58.164062 62.507812 58.246094 61.664062 58.328125 L 61.664062 58.695312 L 64.789062 58.695312 L 64.789062 58.328125 C 63.761719 58.234375 63.667969 58.164062 63.667969 57.128906 L 63.667969 55.34375 C 63.839844 55.4375 64.195312 55.574219 64.578125 55.585938 C 66.289062 55.261719 67.859375 53.9375 67.859375 51.878906 C 67.859375 50.527344 66.988281 49.300781 65.527344 49.300781 C 65.367188 49.300781 65.117188 49.371094 64.878906 49.507812 Z M 63.667969 50.691406 C 64.023438 50.421875 64.5625 50.121094 64.984375 50.121094 C 65.949219 50.121094 66.75 50.9375 66.75 52.398438 C 66.75 53.9375 66.011719 54.917969 64.90625 54.917969 C 64.457031 54.917969 63.957031 54.703125 63.667969 54.386719 Z M 63.667969 50.691406 "/>
<path style=" stroke:none;fill-rule:nonzero;fill:rgb(100%,100%,100%);fill-opacity:1;" d="M 74.625 49.464844 L 72.25 49.464844 L 72.25 49.804688 L 72.699219 49.914062 C 73.042969 49.996094 73.132812 50.09375 73.015625 50.5 C 72.816406 51.195312 72.144531 53.1875 71.804688 54.046875 L 70.5 50.515625 C 70.367188 50.132812 70.394531 49.996094 70.671875 49.929688 L 71.105469 49.804688 L 71.105469 49.464844 L 68.339844 49.464844 L 68.339844 49.804688 C 69.035156 49.902344 69.195312 50.09375 69.433594 50.679688 C 69.894531 51.878906 70.539062 53.515625 71.117188 55.191406 C 71.15625 55.328125 71.210938 55.492188 71.15625 55.667969 C 71.078125 55.929688 70.945312 56.242188 70.789062 56.554688 C 70.445312 57.304688 69.894531 57.742188 69.285156 57.890625 C 69.101562 57.917969 69.035156 58.027344 69.035156 58.21875 C 69.050781 58.613281 69.378906 58.929688 69.734375 58.929688 C 69.945312 58.929688 70.234375 58.710938 70.578125 58.152344 C 71.050781 57.402344 71.644531 55.777344 72.027344 54.769531 C 72.792969 52.738281 73.199219 51.621094 73.515625 50.882812 C 73.859375 50.066406 73.992188 49.941406 74.625 49.804688 Z M 74.625 49.464844 "/>
<path style=" stroke:none;fill-rule:nonzero;fill:rgb(100%,100%,100%);fill-opacity:1;" d="M 81.417969 55.425781 L 81.417969 55.070312 C 80.574219 54.988281 80.507812 54.867188 80.507812 54.019531 L 80.507812 50.746094 C 80.507812 49.984375 80.550781 49.886719 81.394531 49.804688 L 81.394531 49.464844 L 74.960938 49.464844 L 74.960938 49.804688 C 75.832031 49.886719 75.882812 49.957031 75.882812 50.746094 L 75.882812 54.019531 C 75.882812 54.890625 75.820312 54.988281 74.988281 55.070312 L 74.988281 55.425781 L 77.730469 55.425781 L 77.730469 55.070312 C 76.976562 54.988281 76.925781 54.890625 76.925781 54.019531 L 76.925781 50.542969 C 76.925781 49.996094 76.976562 49.929688 77.492188 49.929688 L 78.902344 49.929688 C 79.390625 49.929688 79.46875 49.984375 79.46875 50.554688 L 79.46875 54.019531 C 79.46875 54.890625 79.429688 54.988281 78.625 55.070312 L 78.625 55.425781 Z M 81.417969 55.425781 "/>
<path style=" stroke:none;fill-rule:nonzero;fill:rgb(100%,100%,100%);fill-opacity:1;" d="M 88.691406 55.425781 L 88.691406 55.070312 C 87.847656 54.988281 87.78125 54.867188 87.78125 54.019531 L 87.78125 50.746094 C 87.78125 49.984375 87.820312 49.886719 88.664062 49.804688 L 88.664062 49.464844 L 82.234375 49.464844 L 82.234375 49.804688 C 83.101562 49.886719 83.15625 49.957031 83.15625 50.746094 L 83.15625 54.019531 C 83.15625 54.890625 83.089844 54.988281 82.257812 55.070312 L 82.257812 55.425781 L 85 55.425781 L 85 55.070312 C 84.25 54.988281 84.195312 54.890625 84.195312 54.019531 L 84.195312 50.542969 C 84.195312 49.996094 84.25 49.929688 84.761719 49.929688 L 86.171875 49.929688 C 86.660156 49.929688 86.738281 49.984375 86.738281 50.554688 L 86.738281 54.019531 C 86.738281 54.890625 86.699219 54.988281 85.894531 55.070312 L 85.894531 55.425781 Z M 88.691406 55.425781 "/>
<path style=" stroke:none;fill-rule:nonzero;fill:rgb(100%,100%,100%);fill-opacity:1;" d="M 94.734375 54.890625 L 94.605469 54.539062 C 94.472656 54.621094 94.289062 54.6875 94.128906 54.6875 C 93.90625 54.6875 93.667969 54.484375 93.667969 53.871094 L 93.667969 51.332031 C 93.667969 50.625 93.539062 50.066406 93.074219 49.671875 C 92.785156 49.425781 92.390625 49.300781 91.996094 49.300781 C 91.246094 49.453125 90.386719 49.984375 90.019531 50.257812 C 89.769531 50.449219 89.597656 50.597656 89.597656 50.800781 C 89.597656 51.117188 89.941406 51.386719 90.175781 51.386719 C 90.363281 51.386719 90.507812 51.292969 90.558594 51.074219 C 90.664062 50.652344 90.78125 50.351562 90.953125 50.175781 C 91.085938 50.011719 91.285156 49.902344 91.546875 49.902344 C 92.207031 49.902344 92.65625 50.460938 92.65625 51.441406 L 92.65625 51.6875 C 92.363281 51.933594 91.402344 52.300781 90.613281 52.574219 C 89.886719 52.832031 89.542969 53.257812 89.542969 53.925781 C 89.542969 54.785156 90.191406 55.585938 91.125 55.585938 C 91.519531 55.585938 92.152344 55.082031 92.679688 54.714844 C 92.746094 54.945312 92.824219 55.136719 92.996094 55.328125 C 93.140625 55.464844 93.417969 55.585938 93.617188 55.585938 Z M 92.65625 54.277344 C 92.402344 54.523438 91.941406 54.757812 91.601562 54.769531 C 91.191406 54.769531 90.664062 54.429688 90.664062 53.71875 C 90.664062 53.230469 90.953125 52.96875 91.46875 52.722656 C 91.746094 52.589844 92.378906 52.300781 92.65625 52.152344 Z M 92.65625 54.277344 "/>
<path style=" stroke:none;fill-rule:nonzero;fill:rgb(100%,100%,100%);fill-opacity:1;" d="M 104.210938 55.425781 L 104.210938 55.070312 C 103.65625 55.027344 103.421875 54.796875 102.972656 54.0625 C 102.578125 53.378906 102.417969 53.066406 102.207031 52.75 C 101.929688 52.355469 101.550781 52.136719 101.3125 52.070312 L 101.3125 52.015625 C 101.574219 51.824219 101.878906 51.46875 102.101562 51.101562 C 102.445312 50.570312 102.734375 50.1875 103.210938 50.1875 L 103.421875 50.1875 C 103.761719 50.1875 103.894531 50.023438 103.894531 49.777344 C 103.894531 49.519531 103.683594 49.316406 103.300781 49.316406 C 102.734375 49.316406 102.300781 49.914062 102.0625 50.296875 C 101.785156 50.734375 101.429688 51.347656 101.128906 51.660156 C 100.8125 51.972656 100.519531 52.042969 100.140625 52.054688 L 100.140625 50.691406 C 100.140625 49.984375 100.203125 49.886719 100.917969 49.804688 L 100.917969 49.464844 L 98.292969 49.464844 L 98.292969 49.804688 C 99.058594 49.886719 99.109375 49.96875 99.109375 50.691406 L 99.109375 54.167969 C 99.109375 54.867188 99.046875 54.988281 98.253906 55.070312 L 98.253906 55.425781 L 100.996094 55.425781 L 100.996094 55.070312 C 100.203125 54.988281 100.140625 54.867188 100.140625 54.167969 L 100.140625 52.464844 C 100.707031 52.464844 100.996094 52.589844 101.246094 53.09375 C 101.429688 53.472656 101.695312 54.046875 102.035156 54.648438 C 102.417969 55.34375 102.855469 55.425781 103.355469 55.425781 Z M 104.210938 55.425781 "/>
<path style=" stroke:none;fill-rule:nonzero;fill:rgb(100%,100%,100%);fill-opacity:1;" d="M 107.589844 49.300781 C 106.390625 49.300781 104.703125 50.324219 104.703125 52.574219 C 104.703125 54.089844 105.785156 55.585938 107.589844 55.585938 C 108.894531 55.585938 110.449219 54.539062 110.449219 52.34375 C 110.449219 50.652344 109.222656 49.300781 107.589844 49.300781 Z M 107.457031 49.75 C 108.601562 49.75 109.222656 51.046875 109.222656 52.644531 C 109.222656 54.511719 108.550781 55.136719 107.734375 55.136719 C 106.652344 55.136719 105.929688 53.855469 105.929688 52.136719 C 105.929688 50.597656 106.640625 49.75 107.457031 49.75 Z M 107.457031 49.75 "/>
<path style=" stroke:none;fill-rule:nonzero;fill:rgb(100%,100%,100%);fill-opacity:1;" d="M 118.90625 55.425781 L 118.90625 55.070312 C 118.078125 55.015625 118.023438 54.890625 118.011719 53.953125 L 117.984375 50.773438 C 117.972656 49.96875 118.011719 49.847656 118.878906 49.792969 L 118.878906 49.464844 L 116.917969 49.464844 L 115.058594 53.597656 L 113.28125 49.464844 L 111.394531 49.464844 L 111.394531 49.804688 C 112.226562 49.859375 112.253906 50.011719 112.210938 50.953125 L 112.121094 52.902344 C 112.082031 53.652344 112.027344 54.167969 111.976562 54.523438 C 111.910156 54.878906 111.726562 55.042969 111.183594 55.070312 L 111.183594 55.425781 L 113.503906 55.425781 L 113.503906 55.070312 C 112.859375 55.027344 112.660156 54.878906 112.621094 54.523438 C 112.609375 54.222656 112.59375 53.734375 112.621094 52.75 L 112.675781 50.476562 L 112.714844 50.476562 L 114.636719 55.355469 L 114.875 55.355469 L 116.996094 50.3125 L 117.035156 50.3125 L 116.996094 53.953125 C 116.984375 54.890625 116.945312 55.015625 116.140625 55.070312 L 116.140625 55.425781 Z M 118.90625 55.425781 "/>
<path style=" stroke:none;fill-rule:nonzero;fill:rgb(100%,100%,100%);fill-opacity:1;" d="M 126.136719 55.425781 L 126.136719 55.070312 C 125.292969 54.988281 125.226562 54.867188 125.226562 54.019531 L 125.226562 50.746094 C 125.226562 49.984375 125.265625 49.886719 126.109375 49.804688 L 126.109375 49.464844 L 119.679688 49.464844 L 119.679688 49.804688 C 120.550781 49.886719 120.601562 49.957031 120.601562 50.746094 L 120.601562 54.019531 C 120.601562 54.890625 120.535156 54.988281 119.707031 55.070312 L 119.707031 55.425781 L 122.445312 55.425781 L 122.445312 55.070312 C 121.695312 54.988281 121.644531 54.890625 121.644531 54.019531 L 121.644531 50.542969 C 121.644531 49.996094 121.695312 49.929688 122.210938 49.929688 L 123.621094 49.929688 C 124.105469 49.929688 124.1875 49.984375 124.1875 50.554688 L 124.1875 54.019531 C 124.1875 54.890625 124.148438 54.988281 123.34375 55.070312 L 123.34375 55.425781 Z M 126.136719 55.425781 "/>
<path style=" stroke:none;fill-rule:nonzero;fill:rgb(100%,100%,100%);fill-opacity:1;" d="M 132.183594 54.890625 L 132.050781 54.539062 C 131.917969 54.621094 131.734375 54.6875 131.578125 54.6875 C 131.351562 54.6875 131.117188 54.484375 131.117188 53.871094 L 131.117188 51.332031 C 131.117188 50.625 130.984375 50.066406 130.523438 49.671875 C 130.234375 49.425781 129.835938 49.300781 129.441406 49.300781 C 128.691406 49.453125 127.835938 49.984375 127.464844 50.257812 C 127.214844 50.449219 127.042969 50.597656 127.042969 50.800781 C 127.042969 51.117188 127.386719 51.386719 127.625 51.386719 C 127.808594 51.386719 127.953125 51.292969 128.003906 51.074219 C 128.113281 50.652344 128.230469 50.351562 128.402344 50.175781 C 128.53125 50.011719 128.730469 49.902344 128.996094 49.902344 C 129.652344 49.902344 130.101562 50.460938 130.101562 51.441406 L 130.101562 51.6875 C 129.8125 51.933594 128.847656 52.300781 128.058594 52.574219 C 127.332031 52.832031 126.992188 53.257812 126.992188 53.925781 C 126.992188 54.785156 127.636719 55.585938 128.574219 55.585938 C 128.96875 55.585938 129.601562 55.082031 130.128906 54.714844 C 130.191406 54.945312 130.273438 55.136719 130.445312 55.328125 C 130.589844 55.464844 130.867188 55.585938 131.0625 55.585938 Z M 130.101562 54.277344 C 129.851562 54.523438 129.390625 54.757812 129.046875 54.769531 C 128.636719 54.769531 128.113281 54.429688 128.113281 53.71875 C 128.113281 53.230469 128.402344 52.96875 128.914062 52.722656 C 129.191406 52.589844 129.824219 52.300781 130.101562 52.152344 Z M 130.101562 54.277344 "/>
<path style=" stroke:none;fill-rule:nonzero;fill:rgb(100%,100%,100%);fill-opacity:1;" d="M 139.183594 55.425781 L 139.183594 55.070312 C 138.40625 55 138.328125 54.90625 138.328125 54.035156 L 138.328125 50.734375 C 138.328125 49.957031 138.394531 49.875 139.144531 49.792969 L 139.144531 49.464844 L 136.496094 49.464844 L 136.496094 49.792969 C 137.246094 49.875 137.300781 49.96875 137.300781 50.734375 L 137.300781 51.988281 L 134.742188 51.988281 L 134.742188 50.734375 C 134.742188 49.96875 134.808594 49.875 135.480469 49.792969 L 135.480469 49.464844 L 132.804688 49.464844 L 132.804688 49.792969 C 133.664062 49.875 133.703125 49.957031 133.703125 50.734375 L 133.703125 54.035156 C 133.703125 54.90625 133.648438 55 132.832031 55.070312 L 132.832031 55.425781 L 135.492188 55.425781 L 135.492188 55.070312 C 134.808594 55 134.742188 54.917969 134.742188 54.035156 L 134.742188 52.507812 L 137.300781 52.507812 L 137.300781 54.035156 C 137.300781 54.890625 137.21875 55 136.523438 55.070312 L 136.523438 55.425781 Z M 139.183594 55.425781 "/>
<path style=" stroke:none;fill-rule:nonzero;fill:rgb(100%,100%,100%);fill-opacity:1;" d="M 146.519531 49.464844 L 144.476562 49.464844 L 144.476562 49.5625 C 144.476562 49.628906 144.449219 49.726562 144.386719 49.859375 L 141.949219 54.496094 L 141.921875 54.496094 C 141.972656 53.433594 141.972656 52.765625 141.972656 52.300781 L 141.972656 50.746094 C 141.972656 49.957031 142.011719 49.875 142.816406 49.792969 L 142.816406 49.464844 L 140.089844 49.464844 L 140.089844 49.792969 C 140.917969 49.875 140.972656 49.957031 140.972656 50.761719 L 140.972656 54.046875 C 140.972656 54.867188 140.90625 54.988281 140.089844 55.070312 L 140.089844 55.425781 L 142.132812 55.425781 L 142.132812 55.328125 C 142.132812 55.191406 142.171875 55.054688 142.25 54.90625 L 144.636719 50.339844 L 144.660156 50.339844 C 144.609375 51.359375 144.609375 51.851562 144.609375 52.21875 L 144.609375 54.15625 C 144.609375 54.890625 144.53125 54.988281 143.832031 55.070312 L 143.832031 55.425781 L 146.507812 55.425781 L 146.507812 55.070312 C 145.664062 54.988281 145.609375 54.90625 145.609375 54.140625 L 145.609375 50.625 C 145.609375 49.96875 145.675781 49.875 146.519531 49.792969 Z M 146.519531 49.464844 "/>
<path style=" stroke:none;fill-rule:nonzero;fill:rgb(100%,100%,100%);fill-opacity:1;" d="M 153.828125 49.464844 L 151.785156 49.464844 L 151.785156 49.5625 C 151.785156 49.628906 151.761719 49.726562 151.695312 49.859375 L 149.257812 54.496094 L 149.230469 54.496094 C 149.28125 53.433594 149.28125 52.765625 149.28125 52.300781 L 149.28125 50.746094 C 149.28125 49.957031 149.324219 49.875 150.125 49.792969 L 150.125 49.464844 L 147.398438 49.464844 L 147.398438 49.792969 C 148.230469 49.875 148.28125 49.957031 148.28125 50.761719 L 148.28125 54.046875 C 148.28125 54.867188 148.214844 54.988281 147.398438 55.070312 L 147.398438 55.425781 L 149.441406 55.425781 L 149.441406 55.328125 C 149.441406 55.191406 149.480469 55.054688 149.558594 54.90625 L 151.945312 50.339844 L 151.972656 50.339844 C 151.917969 51.359375 151.917969 51.851562 151.917969 52.21875 L 151.917969 54.15625 C 151.917969 54.890625 151.839844 54.988281 151.140625 55.070312 L 151.140625 55.425781 L 153.816406 55.425781 L 153.816406 55.070312 C 152.972656 54.988281 152.917969 54.90625 152.917969 54.140625 L 152.917969 50.625 C 152.917969 49.96875 152.984375 49.875 153.828125 49.792969 Z M 153.828125 49.464844 "/>
<path style=" stroke:none;fill-rule:nonzero;fill:rgb(100%,100%,100%);fill-opacity:1;" d="M 148.886719 47.394531 L 149.476562 46.933594 L 149.628906 47.011719 C 149.785156 47.722656 150.175781 48.078125 150.804688 48.078125 C 151.125 48.078125 151.386719 47.984375 151.585938 47.796875 C 151.792969 47.605469 151.894531 47.328125 151.894531 46.964844 L 152.050781 46.914062 L 152.308594 47.566406 C 151.816406 48.148438 151.242188 48.441406 150.582031 48.441406 C 150.21875 48.441406 149.894531 48.351562 149.617188 48.171875 C 149.335938 47.992188 149.09375 47.730469 148.886719 47.394531 Z M 148.886719 47.394531 "/>
</g>
</svg>